<svg width="60" height="60" viewBox="0 0 60 60" fill="none" xmlns="http://www.w3.org/2000/svg">
<g clip-path="url(#clip0_132_2101)">
<path d="M17 7C25.284 7 32 13.716 32 22C32 30.284 25.284 37 17 37C8.716 37 2 30.284 2 22C2 13.716 8.716 7 17 7Z" fill="#FFE710"/>
<path d="M41.043 11C53.832 11 64.237 21.542 64.237 34.5C64.237 47.458 53.832 58 41.043 58L20.539 57.999H19.133C8.583 57.999 0 49.346 0 38.709C0 27.892 8.163 19.419 18.585 19.419H22.737C27.148 14.156 33.878 11 41.043 11Z" fill="black"/>
<path d="M40.778 17C50.426 17 58.278 24.85 58.278 34.5C58.278 44.149 50.426 52 40.778 52L19.199 51.999C11.899 51.999 5.95898 46.037 5.95898 38.709C5.95898 31.257 11.57 25.419 18.733 25.419H25.721C28.826 20.247 34.537 17 40.778 17ZM40.778 23C36.21 23 32.085 25.61 30.268 29.649L29.472 31.419H18.733C14.872 31.419 11.959 34.553 11.959 38.709C11.959 42.729 15.208 45.999 19.199 45.999L40.778 46C47.118 46 52.278 40.841 52.278 34.5C52.278 28.158 47.118 23 40.778 23Z" fill="white"/>
</g>
<defs>
<clipPath id="clip0_132_2101">
<rect width="60" height="60" fill="white"/>
</clipPath>
</defs>
</svg>
